<mxfile host="app.diagrams.net" agent="Mozilla/5.0 (Macintosh; Intel Mac OS X 10_15_7) AppleWebKit/537.36 (KHTML, like Gecko) Chrome/134.0.0.0 Safari/537.36" version="26.2.8">
  <diagram name="Page-1" id="mnc2l4lkg3eJp-TPkgR_">
    <mxGraphModel dx="980" dy="615" grid="1" gridSize="10" guides="1" tooltips="1" connect="1" arrows="1" fold="1" page="1" pageScale="1" pageWidth="850" pageHeight="1100" math="0" shadow="0">
      <root>
        <mxCell id="0" />
        <mxCell id="1" parent="0" />
        <mxCell id="CZFAWaujRZ5x5_oHIRUo-3" style="edgeStyle=orthogonalEdgeStyle;rounded=0;orthogonalLoop=1;jettySize=auto;html=1;entryX=0.5;entryY=0;entryDx=0;entryDy=0;" edge="1" parent="1" source="--Gi6Uis7wvZqhMqhkx8-2" target="CZFAWaujRZ5x5_oHIRUo-1">
          <mxGeometry relative="1" as="geometry" />
        </mxCell>
        <mxCell id="--Gi6Uis7wvZqhMqhkx8-2" value="S-Bahn Berlin Website" style="ellipse;whiteSpace=wrap;html=1;aspect=fixed;" parent="1" vertex="1">
          <mxGeometry x="120" y="90" width="80" height="80" as="geometry" />
        </mxCell>
        <mxCell id="--Gi6Uis7wvZqhMqhkx8-6" style="edgeStyle=orthogonalEdgeStyle;rounded=0;orthogonalLoop=1;jettySize=auto;html=1;entryX=0;entryY=0.5;entryDx=0;entryDy=0;" parent="1" source="--Gi6Uis7wvZqhMqhkx8-3" target="--Gi6Uis7wvZqhMqhkx8-4" edge="1">
          <mxGeometry relative="1" as="geometry" />
        </mxCell>
        <mxCell id="--Gi6Uis7wvZqhMqhkx8-3" value="Disruption Notifier" style="rounded=1;whiteSpace=wrap;html=1;" parent="1" vertex="1">
          <mxGeometry x="100" y="340" width="120" height="60" as="geometry" />
        </mxCell>
        <mxCell id="--Gi6Uis7wvZqhMqhkx8-4" value="Webhook" style="rounded=1;whiteSpace=wrap;html=1;" parent="1" vertex="1">
          <mxGeometry x="370" y="340" width="120" height="60" as="geometry" />
        </mxCell>
        <mxCell id="CZFAWaujRZ5x5_oHIRUo-4" style="edgeStyle=orthogonalEdgeStyle;rounded=0;orthogonalLoop=1;jettySize=auto;html=1;" edge="1" parent="1" source="CZFAWaujRZ5x5_oHIRUo-1" target="--Gi6Uis7wvZqhMqhkx8-2">
          <mxGeometry relative="1" as="geometry" />
        </mxCell>
        <mxCell id="CZFAWaujRZ5x5_oHIRUo-5" style="edgeStyle=orthogonalEdgeStyle;rounded=0;orthogonalLoop=1;jettySize=auto;html=1;entryX=0.5;entryY=0;entryDx=0;entryDy=0;" edge="1" parent="1" source="CZFAWaujRZ5x5_oHIRUo-1" target="--Gi6Uis7wvZqhMqhkx8-3">
          <mxGeometry relative="1" as="geometry" />
        </mxCell>
        <mxCell id="CZFAWaujRZ5x5_oHIRUo-1" value="Browser (Selenium)" style="rounded=1;whiteSpace=wrap;html=1;" vertex="1" parent="1">
          <mxGeometry x="100" y="220" width="120" height="60" as="geometry" />
        </mxCell>
      </root>
    </mxGraphModel>
  </diagram>
</mxfile>
